<svg xmlns="http://www.w3.org/2000/svg" viewBox="0 0 1920 23"><path d="M1920 22.0088L1920 0.00878906C1880 0.00878906 1880 22.0088 1839.99 22.0088C1799.99 22.0088 1799.99 0.00878906 1759.98 0.00878906C1719.98 0.00878906 1719.98 22.0088 1679.98 22.0088C1639.98 22.0088 1639.98 0.00878906 1599.98 0.00878906C1559.98 0.00878906 1559.98 22.0088 1519.98 22.0088C1479.98 22.0088 1479.98 0.00878906 1439.98 0.00878906C1399.98 0.00878906 1399.98 22.0088 1359.98 22.0088C1319.98 22.0088 1319.98 0.00878906 1279.98 0.00878906C1239.98 0.00878906 1239.98 22.0088 1199.98 22.0088C1159.98 22.0088 1159.98 0.00878906 1119.98 0.00878906C1079.98 0.00878906 1079.98 22.0088 1039.98 22.0088C999.98 22.0088 999.98 0.00878906 959.99 0.00878906C919.99 0.00878906 919.99 22.0088 879.99 22.0088C839.99 22.0088 839.99 0.00878906 799.99 0.00878906C759.99 0.00878906 759.99 22.0088 719.99 22.0088C679.99 22.0088 679.99 0.00878906 639.99 0.00878906C599.99 0.00878906 599.99 22.0088 559.99 22.0088C519.99 22.0088 519.99 0.00878906 479.99 0.00878906C439.99 0.00878906 439.99 22.0088 399.99 22.0088C359.99 22.0088 359.99 0.00878906 319.99 0.00878906C279.99 0.00878906 279.99 22.0088 239.99 22.0088C200 22.0088 200 0.00878906 160 0.00878906C120 0.00878906 120 22.0088 80 22.0088C40 22.0088 40 0.00878906 0 0.00878906L-1.32845e-08 22.0088L1920 22.0088Z"/></svg>