<svg xmlns="http://www.w3.org/2000/svg" xmlns:xlink="http://www.w3.org/1999/xlink" x="0px" y="0px" viewBox="0 0 100 100" style="enable-background:new 0 0 100 100;" xml:space="preserve"><style type="text/css">	.plnt1{fill:#B9CFD4;}	.plnt2{fill:#FFC1A7;}	.plnt3{fill:#FF986D;}</style><g>	<g>		<path d="M64.6,86.7c-1.4-1.1-2.8-2.4-4.1-3.6c-6.7-6.4-14.2-15.7-21-26.4c-6.8-10.7-12.3-21.4-15.3-30.1c-2.2-6.4-4-14.6-0.2-17.1   s10.5,2.6,15.4,7.3c6.7,6.4,14.2,15.7,21,26.4c6.8,10.7,12.3,21.4,15.3,30.1c2.2,6.4,4,14.6,0.2,17.1l0,0   C73.1,92.3,68.7,89.9,64.6,86.7z M34.3,14.6C30,11.3,26.7,9.9,25,11c-2.2,1.4-1.9,7,0.9,15.1c2.9,8.6,8.3,19.2,15.1,29.7   c6.8,10.6,14.1,19.8,20.8,26.1c6.2,5.8,11.2,8.5,13.3,7.1l0,0c2.2-1.4,1.9-7-0.9-15.1c-2.9-8.6-8.3-19.2-15.1-29.7   c-6.8-10.6-14.1-19.8-20.8-26.1C36.9,16.8,35.6,15.6,34.3,14.6z"></path>	</g>	<g>		<path d="M27.3,92.3c-3.3-2.6-2.3-10.4-0.8-16.6c2.2-9,6.5-20.1,12.4-31.4C44.7,33,51.3,23,57.4,16C61.8,10.9,68,5.2,72,7.3l0,0   c4,2.1,3,10.4,1.4,17c-2.2,9-6.5,20.1-12.4,31.4C55.3,67,48.7,77,42.6,84C38.2,89.1,32,94.8,28,92.7   C27.7,92.6,27.5,92.5,27.3,92.3z M71.3,8.8c-2.3-1.2-7,1.9-12.6,8.3c-6,6.9-12.5,16.8-18.2,27.9c-5.8,11.1-10.1,22.2-12.2,31   c-2,8.3-1.8,13.9,0.5,15.1c2.3,1.2,7-1.9,12.6-8.3c6-6.9,12.5-16.8,18.2-27.9c5.8-11.1,10.1-22.2,12.2-31   C73.8,15.6,73.6,10,71.3,8.8L71.3,8.8z"></path>	</g>	<g>		<path d="M4.3,56c-1.3-1.1-2.2-2.3-2.3-3.7c-0.2-4.5,7.5-7.8,14-9.7c8.9-2.6,20.7-4.4,33.4-5C62.1,37,74,37.6,83.1,39.4   c6.7,1.3,14.7,3.8,14.9,8.3c0.2,4.5-7.5,7.8-14,9.7c-8.9,2.6-20.7,4.4-33.4,5C37.9,63,26,62.4,16.9,60.6   C12.3,59.7,7.1,58.3,4.3,56z M94.7,45.4c-2.1-1.7-6.3-3.2-11.9-4.3c-8.9-1.8-20.8-2.4-33.3-1.8c-12.5,0.6-24.2,2.3-33,4.9   c-8.1,2.4-12.9,5.4-12.8,8l0,0c0.1,2.6,5.2,5.1,13.5,6.8c8.9,1.8,20.8,2.4,33.3,1.8c12.5-0.6,24.2-2.3,33-4.9   c8.1-2.4,12.9-5.4,12.8-8C96.3,47,95.7,46.2,94.7,45.4z"></path>	</g>	<g>					<ellipse transform="matrix(3.037074e-02 -0.9995 0.9995 3.037074e-02 20.221 56.157)" class="plnt1" cx="39.1" cy="17.7" rx="7.8" ry="7.8"></ellipse>	</g>	<g>		<circle class="plnt2" cx="65.7" cy="85.3" r="5.4"></circle>	</g>	<g>					<ellipse transform="matrix(0.9995 -3.294630e-02 3.294630e-02 0.9995 -1.8347 1.3542)" class="plnt3" cx="40.2" cy="56.3" rx="8" ry="8"></ellipse>	</g></g></svg>